<svg xmlns="http://www.w3.org/2000/svg" viewBox="0 0 167 167"><defs><style>.cls-1{fill:#8bbd23;}</style></defs><g id="Layer_2" data-name="Layer 2"><g id="Layer_1-2" data-name="Layer 1"><path class="cls-1" d="M0,0V167H167V0ZM67.5,111.06q-6.95,5.52-20.56,5.52A58,58,0,0,1,34,115.12a68,68,0,0,1-11.49-3.58V92.71A74.56,74.56,0,0,0,33.9,96.6a45.28,45.28,0,0,0,11.18,1.5q3.72,0,5.44-1.15a4.22,4.22,0,0,0,1.73-3.8c0-3.42-2.07-5.13-6.19-5.13H39.69V73.52h5q5.84,0,5.84-5,0-4.77-5.84-4.77a22.14,22.14,0,0,0-8.84,2A45.49,45.49,0,0,0,26.87,71L21.65,52.13a64.91,64.91,0,0,1,12.29-4.82,49.76,49.76,0,0,1,13.88-2q12.21,0,18.75,5.13T73.11,65a15.83,15.83,0,0,1-2.74,9.59,17.46,17.46,0,0,1-7,5.7,13.21,13.21,0,0,1,5.26,2.88,17.12,17.12,0,0,1,4.15,5.43,16,16,0,0,1,1.64,7.25Q74.44,105.54,67.5,111.06Zm69.14-3.81q-8.71,8.1-23.48,8.1H77.27V100.84h4.42V61.14H77.27V46.56h35.89q14.78,0,23.48,8.09T145.35,81Q145.35,99.16,136.64,107.25Z"/><path class="cls-1" d="M111.57,61.06h-5.13v39.78h5.13a5.91,5.91,0,0,0,4.51-1.59q1.5-1.59,1.5-5V67.6Q117.58,61.06,111.57,61.06Z"/></g></g></svg>