<svg xmlns="http://www.w3.org/2000/svg" viewBox="0 0 167 167"><defs><style>.cls-1{fill:#8bbd23;}</style></defs><g id="Layer_2" data-name="Layer 2"><g id="Layer_1-2" data-name="Layer 1"><polygon class="cls-1" points="40.73 51.88 40.46 51.88 39.35 57.25 41.84 57.25 40.73 51.88"/><path class="cls-1" d="M64.24,54.13a1.87,1.87,0,0,0,.39-1.31v-1a1.87,1.87,0,0,0-.39-1.31,1.56,1.56,0,0,0-1.18-.42H61.6v4.43h1.46A1.56,1.56,0,0,0,64.24,54.13Z"/><path class="cls-1" d="M63.25,57.63H61.6v4.64h1.65a1.52,1.52,0,0,0,1.17-.42,1.82,1.82,0,0,0,.4-1.31V59.35a1.81,1.81,0,0,0-.4-1.3A1.52,1.52,0,0,0,63.25,57.63Z"/><path class="cls-1" d="M83.77,62.27a1.84,1.84,0,0,0,1.38-.48,2.19,2.19,0,0,0,.46-1.52V52.12a2.16,2.16,0,0,0-.46-1.51,2.19,2.19,0,0,0-2.76,0,2.16,2.16,0,0,0-.46,1.51v8.15a2.19,2.19,0,0,0,.46,1.53A1.87,1.87,0,0,0,83.77,62.27Z"/><path class="cls-1" d="M0,0V167H167V0ZM76.14,47.91c1.79-1.73,4.34-2.59,7.63-2.59s5.84.86,7.63,2.59,2.68,4.49,2.68,8.29-.89,6.56-2.68,8.29-4.34,2.59-7.63,2.59-5.84-.87-7.63-2.59S73.46,60,73.46,56.2,74.35,49.63,76.14,47.91ZM52.69,62.27H54V50.12H52.69V45.69h12.4a8.77,8.77,0,0,1,5.26,1.38A4.58,4.58,0,0,1,72.24,51a4.65,4.65,0,0,1-.75,2.69,5.3,5.3,0,0,1-1.77,1.65,7.43,7.43,0,0,1-2,.74v.27a7.36,7.36,0,0,1,3.45,1.21c1,.69,1.54,1.91,1.54,3.68a4.51,4.51,0,0,1-2.13,4.14,10.48,10.48,0,0,1-5.53,1.31H52.69Zm-22,0H31.8l4.56-16.58h9.83l4.56,16.58h1.08V66.7H41.24V62.27h1.63l-.44-2.16H38.76l-.43,2.16H40V66.7H30.72Zm63.77,18.8H91.66v25.46h2.83v9.27H73.1v-9.27h2.72V86.72L66.2,115.8H57.83L47.92,87v19.52h2.72v9.27H32.08v-9.27h2.83V81.07H32.08V71.79H58l5.89,17.65,5.66-17.65H94.49Zm.4-30.95V45.69h10v4.43H103.8V60.54a1.82,1.82,0,0,0,.4,1.31,1.84,1.84,0,0,0,2.34,0,1.87,1.87,0,0,0,.4-1.31V50.12h-1.08V45.69h9.26v4.43h-1.35v9.05q0,4.19-2.24,6a9.78,9.78,0,0,1-6.43,1.87,10.14,10.14,0,0,1-6.55-1.87q-2.31-1.86-2.31-6V50.12Zm40.05,38.75H122.26v-7.8h-6.84V90h5v6.46h-5v10.07h6.84V97.59h12.68V115.8H96.75v-9.27h2.83V81.07H96.75V71.79h38.19Zm1.29-36.64h-4.64V50.12h-1.73V62.27h1.89V66.7H120.41V62.27h1.89V50.12h-1.73v2.11h-4.64V45.69h20.3Z"/></g></g></svg>