<svg xmlns="http://www.w3.org/2000/svg" viewBox="0 0 167 167"><defs><style>.cls-1{fill:#8bbd23;}</style></defs><g id="Layer_2" data-name="Layer 2"><g id="Layer_1-2" data-name="Layer 1"><path class="cls-1" d="M0,0V167H167V0ZM67.31,95.44H50.65v-7H53.2l-.68-3.4H46.74l-.68,3.4h2.55v7H34.08v-7h1.7L43,62.38H58.43l7.18,26.09h1.7Zm33.82,0H87.66v-10a5.17,5.17,0,0,0-.48-2.5,2.48,2.48,0,0,0-1.53-1.15,11.28,11.28,0,0,0-3-.3v7H85.5v7H68.67v-7h2.12V69.35H68.67v-7h19.5q5.49,0,8.37,2.25c1.93,1.51,2.89,3.94,2.89,7.31a10.12,10.12,0,0,1-1.14,4.93A6.18,6.18,0,0,1,95,79.76l0,.42q4.08.64,4.08,5v3.27h2Zm31.7-22.78h-7.31V69.35h-2.71V88.47h3v7H107.93v-7h3V69.35h-2.72v3.31h-7.31V62.38h32Z"/><path class="cls-1" d="M85,69.35h-2.3v7H85a2.43,2.43,0,0,0,1.85-.66,3,3,0,0,0,.61-2.06V72.07A2.93,2.93,0,0,0,86.84,70,2.43,2.43,0,0,0,85,69.35Z"/><polygon class="cls-1" points="49.42 72.11 47.68 80.57 51.59 80.57 49.85 72.11 49.42 72.11"/></g></g></svg>