<svg xmlns="http://www.w3.org/2000/svg" viewBox="0 0 167 167"><defs><style>.cls-1{fill:#8bbd23;}</style></defs><g id="Layer_2" data-name="Layer 2"><g id="Layer_1-2" data-name="Layer 1"><path class="cls-1" d="M37.86,77.59a1.57,1.57,0,0,0-1.21.43,1.87,1.87,0,0,0-.4,1.33v7.17a1.85,1.85,0,0,0,.4,1.34,1.6,1.6,0,0,0,1.21.42,1.57,1.57,0,0,0,1.21-.43,1.87,1.87,0,0,0,.41-1.33V79.35A1.87,1.87,0,0,0,39.07,78,1.57,1.57,0,0,0,37.86,77.59Z"/><path class="cls-1" d="M0,0V167H167V0ZM28,81.06H22.32V79.35a1.87,1.87,0,0,0-.4-1.33,1.57,1.57,0,0,0-1.21-.43A1.57,1.57,0,0,0,19.5,78a1.87,1.87,0,0,0-.41,1.33v7.17a1.87,1.87,0,0,0,.41,1.33,1.57,1.57,0,0,0,1.21.43,1.57,1.57,0,0,0,1.21-.43,1.87,1.87,0,0,0,.4-1.33V84.6H28v6.15A10.33,10.33,0,0,1,25.14,92a14.87,14.87,0,0,1-4.15.55q-4.48,0-6.92-2.28c-1.62-1.52-2.44-4-2.44-7.3q0-9.57,9.32-9.57a15.16,15.16,0,0,1,4.19.55A9.68,9.68,0,0,1,28,75.12Zm16.54,9.17a9.26,9.26,0,0,1-6.71,2.28,9.28,9.28,0,0,1-6.71-2.28c-1.58-1.52-2.36-4-2.36-7.3s.78-5.77,2.36-7.29a9.28,9.28,0,0,1,6.71-2.28,9.26,9.26,0,0,1,6.71,2.28q2.37,2.28,2.37,7.29T44.57,90.23ZM69.22,77.59H68V92.18H61.36l-7-10.72v6.82h1.14v3.9H47.75v-3.9h1.18V77.59H47.75v-3.9h8.57l6.25,9.53V77.59H61.43v-3.9h7.79ZM83.9,92.18h-10v-3.9h1.67V77.59H74.07v1.85H70V73.69H87.85v5.75H83.76V77.59H82.24V88.28H83.9Zm20.53,0H95.12v-3.9h1.42l-.38-1.9H92.93l-.38,1.9H94v3.9H85.85v-3.9h1l4-14.59h8.64l4,14.59h1Zm16.3-11.12H115V79.35a1.87,1.87,0,0,0-.41-1.33,1.92,1.92,0,0,0-2.42,0,1.87,1.87,0,0,0-.4,1.33v7.17a1.87,1.87,0,0,0,.4,1.33,1.92,1.92,0,0,0,2.42,0,1.87,1.87,0,0,0,.41-1.33V84.6h5.7v6.15A10.2,10.2,0,0,1,117.84,92a14.8,14.8,0,0,1-4.14.55q-4.5,0-6.93-2.28t-2.43-7.3q0-9.57,9.31-9.57a15.16,15.16,0,0,1,4.19.55,9.68,9.68,0,0,1,2.89,1.21Zm18.62-1.62h-4.08V77.59h-1.52V88.28h1.66v3.9h-10v-3.9h1.66V77.59h-1.52v1.85h-4.08V73.69h17.86ZM153.48,91a9.73,9.73,0,0,1-5.95,1.55,23,23,0,0,1-4.32-.39,14.56,14.56,0,0,1-3.12-.89V86.52h5.23a1.47,1.47,0,0,0,.33,1.07,1.72,1.72,0,0,0,1.21.33,1.9,1.9,0,0,0,1.06-.22.79.79,0,0,0,.32-.68.83.83,0,0,0-.31-.65,3.65,3.65,0,0,0-1.07-.56l-2-.71A9.15,9.15,0,0,1,141,82.74a5.43,5.43,0,0,1-1.15-3.65,5.13,5.13,0,0,1,1.84-4.27c1.23-1,3.27-1.46,6.14-1.46a17.16,17.16,0,0,1,3.88.42,9.57,9.57,0,0,1,2.94,1.1v4.25h-4.75c0-.79-.5-1.19-1.48-1.19a2.08,2.08,0,0,0-1,.18.69.69,0,0,0-.29.63.72.72,0,0,0,.34.64,4.6,4.6,0,0,0,1.13.5l2.07.72a8.11,8.11,0,0,1,3.67,2.22,6.13,6.13,0,0,1-.88,8.13Z"/><polygon class="cls-1" points="94.43 79.13 93.45 83.86 95.64 83.86 94.67 79.13 94.43 79.13"/></g></g></svg>