<svg xmlns="http://www.w3.org/2000/svg" viewBox="0 0 167 167"><defs><style>.cls-1{fill:#8bbd23;}</style></defs><g id="Layer_2" data-name="Layer 2"><g id="Layer_1-2" data-name="Layer 1"><path class="cls-1" d="M88.59,63.34h-.88v4.25h.88c1,0,1.51-.55,1.51-1.66V65a1.81,1.81,0,0,0-.38-1.26A1.47,1.47,0,0,0,88.59,63.34Z"/><path class="cls-1" d="M48.56,67.19a1.81,1.81,0,0,0,.38-1.26V65a1.81,1.81,0,0,0-.38-1.26,1.47,1.47,0,0,0-1.13-.4H46v4.25h1.4A1.47,1.47,0,0,0,48.56,67.19Z"/><polygon class="cls-1" points="67.65 65.02 67.39 65.02 66.33 70.19 68.71 70.19 67.65 65.02"/><path class="cls-1" d="M0,0V167H167V0ZM141,58.72a17.14,17.14,0,0,1,4.58.59,10.6,10.6,0,0,1,3.15,1.33v6.49h-6.22V65.26a2.09,2.09,0,0,0-.44-1.46,1.76,1.76,0,0,0-1.33-.46,1.72,1.72,0,0,0-1.32.46,2.09,2.09,0,0,0-.44,1.46v7.83a2.09,2.09,0,0,0,.44,1.46,1.72,1.72,0,0,0,1.32.46,1.76,1.76,0,0,0,1.33-.46,2.09,2.09,0,0,0,.44-1.46V71h6.22v6.72A11,11,0,0,1,145.59,79a16.72,16.72,0,0,1-4.53.59q-4.91,0-7.56-2.49t-2.66-8Q130.84,58.71,141,58.72ZM120.09,75h1.3V63.34h-1.3V59.08H130v4.26h-1.3V75H130v4.26h-9.87ZM98.3,75h1.29V63.34H98.3V59.08h9.81v4.26h-1.25v3.94h3.63V63.34h-1.24V59.08h9.81v4.26h-1.3V75h1.3v4.26h-9.81V75h1.24V70.73h-3.63V75h1.25v4.26H98.3ZM58,75h1l4.38-15.93h9.45L77.28,75h1v4.26H68.14V75H69.7l-.42-2.07H65.75L65.34,75H66.9v4.26H58ZM37.47,75h1.29V63.34H37.47V59.08H49.38a8.16,8.16,0,0,1,5.11,1.38c1.18.91,1.76,2.4,1.76,4.46a6.22,6.22,0,0,1-.69,3,3.73,3.73,0,0,1-2,1.76l0,.26A2.73,2.73,0,0,1,56.07,73v2h1.22v4.26H49.07v-6.1a3.14,3.14,0,0,0-.3-1.53,1.48,1.48,0,0,0-.94-.7,6.91,6.91,0,0,0-1.8-.18V75h1.71v4.26H37.47ZM19.75,61.21q2.74-2.49,7.83-2.49a19.52,19.52,0,0,1,4.62.52,12,12,0,0,1,3.24,1.16v6.21H29V65.39a2.25,2.25,0,0,0-.45-1.57,1.89,1.89,0,0,0-1.44-.48,1.89,1.89,0,0,0-1.44.48,2.25,2.25,0,0,0-.46,1.57V73a2.25,2.25,0,0,0,.46,1.57,1.89,1.89,0,0,0,1.44.48,1.89,1.89,0,0,0,1.44-.48A2.25,2.25,0,0,0,29,73v-.18h-1.4V68.92h9.19v3.86h-1.3V78a12.6,12.6,0,0,1-3.33,1.16,20.89,20.89,0,0,1-4.74.5,10.75,10.75,0,0,1-7.6-2.55C17.93,75.37,17,72.74,17,69.18S17.93,62.87,19.75,61.21Zm19,46.77a11.46,11.46,0,0,1-8.13,2.8H18.18v-5h1.53V92H18.18V87H30.62a11.46,11.46,0,0,1,8.13,2.81q3,2.8,3,9.11T38.75,108ZM63.48,96.21H56.62V92H52.91v4.84h2.7v3.49h-2.7v5.45h3.71v-4.84h6.86v9.86H42.81v-5h1.53V92H42.81V87H63.48Zm18.33,13q-2.61,2-7.67,2a29.94,29.94,0,0,1-5.56-.5,18.85,18.85,0,0,1-4-1.15v-6.07h6.74a1.86,1.86,0,0,0,.43,1.38,2.19,2.19,0,0,0,1.56.43,2.41,2.41,0,0,0,1.37-.29,1,1,0,0,0,.41-.87,1.06,1.06,0,0,0-.4-.84,4.27,4.27,0,0,0-1.38-.72l-2.63-.92a11.78,11.78,0,0,1-4.89-3,7,7,0,0,1-1.48-4.71,6.61,6.61,0,0,1,2.37-5.5c1.58-1.26,4.22-1.88,7.92-1.88a22.84,22.84,0,0,1,5,.53,12.45,12.45,0,0,1,3.78,1.43V94H77.23q0-1.53-1.89-1.53a2.64,2.64,0,0,0-1.31.23.87.87,0,0,0-.38.81,1,1,0,0,0,.44.83,6.83,6.83,0,0,0,1.46.64l2.67.92A10.45,10.45,0,0,1,83,98.73a7.91,7.91,0,0,1-1.14,10.49ZM96.93,92H95.4v13.78h1.53v5H85.29v-5h1.53V92H85.29V87H96.93ZM95.65,69.84a7.92,7.92,0,0,1-5.11,1.44H87.71V75H90.2v4.26H79.14V75h1.3V63.34h-1.3V59.08h11.4a7.92,7.92,0,0,1,5.11,1.44Q97.4,62,97.41,65.18C97.41,67.32,96.82,68.88,95.65,69.84Zm25.6,33.29h-1.53v6.12a15.2,15.2,0,0,1-3.94,1.37,25.3,25.3,0,0,1-5.59.59q-5.73,0-9-3T98,98.87q0-6.47,3.23-9.4c2.16-2,5.23-2.94,9.24-2.94a23.16,23.16,0,0,1,5.45.61,14.51,14.51,0,0,1,3.83,1.38v7.32h-7.66V94.4a2.65,2.65,0,0,0-.54-1.86,2.85,2.85,0,0,0-3.39,0,2.65,2.65,0,0,0-.54,1.86v8.94a2.61,2.61,0,0,0,.54,1.85,2.81,2.81,0,0,0,3.39,0,2.61,2.61,0,0,0,.54-1.85v-.21h-1.65V98.56h10.84ZM149.8,92h-1.54v18.8h-8.6l-9-13.81v8.79h1.47v5h-10v-5h1.53V92h-1.53V87h11l8.06,12.29V92h-1.47V87H149.8Z"/><path class="cls-1" d="M30.06,92H28.29v13.78h1.77a2.06,2.06,0,0,0,1.57-.55,2.42,2.42,0,0,0,.52-1.72V94.24C32.15,92.73,31.45,92,30.06,92Z"/></g></g></svg>