<svg xmlns="http://www.w3.org/2000/svg" viewBox="0 0 167 167"><defs><style>.cls-1{fill:#8bbd23;}</style></defs><g id="Layer_2" data-name="Layer 2"><g id="Layer_1-2" data-name="Layer 1"><path class="cls-1" d="M41,38.67v-1a1.88,1.88,0,0,0-.39-1.31A1.53,1.53,0,0,0,39.42,36h-.91V40.4h.91C40.47,40.4,41,39.82,41,38.67Z"/><path class="cls-1" d="M81.9,65.78H79.38v7.65H81.9a2.66,2.66,0,0,0,2-.72,3.23,3.23,0,0,0,.68-2.26V68.77a3.24,3.24,0,0,0-.68-2.27A2.66,2.66,0,0,0,81.9,65.78Z"/><path class="cls-1" d="M44.9,109.61H43.3v7.73h1.6c1.82,0,2.73-1,2.73-3v-1.7a3.27,3.27,0,0,0-.68-2.28A2.67,2.67,0,0,0,44.9,109.61Z"/><path class="cls-1" d="M124.8,48.12a1.8,1.8,0,0,0,1.37-.48,2.14,2.14,0,0,0,.46-1.52V38a2.12,2.12,0,0,0-.46-1.51A1.76,1.76,0,0,0,124.8,36a1.8,1.8,0,0,0-1.38.49A2.12,2.12,0,0,0,123,38v8.15a2.12,2.12,0,0,0,.46,1.53A1.87,1.87,0,0,0,124.8,48.12Z"/><path class="cls-1" d="M82.35,48.12a1.82,1.82,0,0,0,1.38-.48,2.14,2.14,0,0,0,.46-1.52V38a2.12,2.12,0,0,0-.46-1.51A1.79,1.79,0,0,0,82.35,36a1.76,1.76,0,0,0-1.37.49A2.12,2.12,0,0,0,80.52,38v8.15A2.12,2.12,0,0,0,81,47.65,1.83,1.83,0,0,0,82.35,48.12Z"/><path class="cls-1" d="M0,0V167H167V0ZM117.17,33.76q2.68-2.59,7.63-2.59t7.62,2.59c1.8,1.73,2.69,4.49,2.69,8.29s-.89,6.56-2.69,8.29-4.33,2.59-7.62,2.59-5.84-.87-7.63-2.59-2.69-4.49-2.69-8.29S115.38,35.49,117.17,33.76ZM93.42,31.54h20.31v6.54h-4.65V36h-1.72V48.12h1.89v4.43H97.91V48.12H99.8V36H98.07v2.11H93.42ZM84.3,80.72a2.65,2.65,0,0,0-1.68-1.27,12.79,12.79,0,0,0-3.24-.32v7.65h3.08v7.66H64V86.78h2.33v-21H64V58.12H85.4q6,0,9.2,2.48c2.11,1.65,3.17,4.32,3.17,8A11,11,0,0,1,96.51,74a6.73,6.73,0,0,1-3.59,3.17l0,.47c3,.47,4.48,2.3,4.48,5.51v3.59h2.2v7.66H84.84v-11A5.59,5.59,0,0,0,84.3,80.72Zm-9.57-47q2.68-2.59,7.62-2.59T90,33.76q2.68,2.6,2.69,8.29T90,50.34c-1.79,1.72-4.33,2.59-7.63,2.59s-5.83-.87-7.62-2.59S72,45.85,72,42.05,72.94,35.49,74.73,33.76ZM49.52,48.12h1.35V36H49.52V31.54H59.73V36h-1.3v4.11h3.78V36H60.92V31.54h10.2V36H69.77V48.12h1.35v4.43H60.92V48.12h1.29V43.67H58.43v4.45h1.3v4.43H49.52Zm-19.92,0H31V36H29.6V31.54H41.45A8.24,8.24,0,0,1,46.77,33q1.83,1.5,1.83,4.85t-1.83,4.85a8.3,8.3,0,0,1-5.32,1.49H38.51v3.89H41.1v4.43H29.6ZM32.12,62Q37,57.47,46.19,57.47a35.5,35.5,0,0,1,8.31.93,22.54,22.54,0,0,1,5.84,2.1V71.66H48.67V69.47a4.07,4.07,0,0,0-.82-2.83,3.45,3.45,0,0,0-2.59-.86,3.44,3.44,0,0,0-2.59.86,4,4,0,0,0-.82,2.83V83.1a4,4,0,0,0,.82,2.82,3.4,3.4,0,0,0,2.59.86,3.42,3.42,0,0,0,2.59-.86,4.06,4.06,0,0,0,.82-2.82v-.33H46.15v-7H62.67v7H60.34V92.1a23.14,23.14,0,0,1-6,2.08,37.67,37.67,0,0,1-8.52.91q-8.73,0-13.68-4.6T27.19,76.28Q27.19,66.44,32.12,62Zm25.6,59.46c-2.14,1.75-5.23,2.62-9.29,2.62H43.3v6.78h4.52v7.73H27.74v-7.73H30.1v-21.2H27.74v-7.73H48.43c4.06,0,7.15.87,9.29,2.61s3.2,4.57,3.2,8.46S59.86,119.67,57.72,121.41Zm42.51-11.8H97.87v21.2h2.36v7.73H82.41v-7.73h2.27V123h-6.6v7.77h2.26v7.73H62.53v-7.73h2.35v-21.2H62.53v-7.73H80.34v7.73H78.08v7.16h6.6v-7.16H82.41v-7.73h17.82Zm37,0h-1.89l-9.09,16.3v4.9h2.35v7.73H110.64v-7.73H113v-4.9l-9.38-16.3h-1.88v-7.73H120v7.73h-1.65l2.78,7.3h.47l2.78-7.3h-1.65v-7.73h14.47Zm.26-15.17H119.15V86.78H122l-.75-3.73h-6.35l-.74,3.73h2.8v7.66h-16V86.78h1.87l7.89-28.66h17l7.89,28.66h1.86Z"/><polygon class="cls-1" points="117.79 68.81 115.88 78.1 120.17 78.1 118.26 68.81 117.79 68.81"/></g></g></svg>